<svg id="Layer_1" data-name="Layer 1" xmlns="http://www.w3.org/2000/svg" viewBox="0 0 435.55 43.54"><defs><style>.cls-1{fill:#0096db;}.cls-2{isolation:isolate;}</style></defs><path class="cls-1" d="M60.45,20C59.54,3,35.45-4.15,25,12.74c-6.76-3-14.87,1.56-15,9.12C-3.43,23.23-4.83,43.7,15,43.7h.66a6.9,6.9,0,0,1,.11-4.8H13.67c-9.52-.07-12-13.87.68-12.59-2.31-7.62,5.75-14,12.45-8.22C32.86,4,55.22,3.54,56.23,23.71c12.45.88,12.06,14.09,3,15.34H46.48A4.94,4.94,0,0,1,47,43.7H59.18C73,43.42,75.5,22.93,60.45,20Z" transform="translate(0.01 -3.11)"/><path class="cls-1" d="M36.18,29.39l.12-.22c1.27-2.26,6.31-2.41,8.29-.61a5.72,5.72,0,0,0,2.1,1.84,5,5,0,1,0,4.15-9,5.07,5.07,0,0,0-6.56,2.46c-1.47,2.68-7.15,1.86-8.25.67a6.07,6.07,0,0,0-2.73-1.92A4.69,4.69,0,0,0,27,27.72a5.32,5.32,0,0,0,.55,1.69c.52,1.24-2,6.83-4.63,7.32a5.73,5.73,0,0,0-2.73.56,4.94,4.94,0,1,0,4.45,8.82l.19-.1a5.07,5.07,0,0,0,2-6.68c-1.24-2.78,2.46-7.18,4.57-7.31s5.82,4.84,4.55,7.14A5.08,5.08,0,0,0,37.43,46a5,5,0,0,0,5.32-8.34,5.78,5.78,0,0,0-2.65-.78c-2.58-.69-5.23-4.93-4-7.22ZM49,23.79A2.15,2.15,0,1,1,46.84,26h0A2.16,2.16,0,0,1,49,23.79ZM22.43,44a2.15,2.15,0,1,1,2.15-2.15h0A2.14,2.14,0,0,1,22.45,44ZM31.6,28.4a1.61,1.61,0,1,1,1.6-1.62v0A1.6,1.6,0,0,1,31.6,28.4Zm8.58,11.31A2.15,2.15,0,1,1,38,41.87h0a2.14,2.14,0,0,1,2.13-2.15Z" transform="translate(0.01 -3.11)"/><g class="cls-2"><g class="cls-2"><path d="M90.27,10.7H79V7.2h26.4v3.5H94.11V40.8H90.27Z" transform="translate(0.01 -3.11)"/><path d="M112.5,7.2H127c4.12,0,7.44,1.25,9.55,3.36a9.27,9.27,0,0,1,2.59,6.62v.1c0,5.57-3.84,8.83-9.12,9.79L140.29,40.8h-4.66l-9.74-13.06h-9.6V40.8H112.5Zm14.11,17.13c5,0,8.64-2.59,8.64-6.91v-.09c0-4.13-3.17-6.63-8.59-6.63H116.29V24.33Z" transform="translate(0.01 -3.11)"/><path d="M147.54,7.2h3.79V40.8h-3.79Z" transform="translate(0.01 -3.11)"/><path d="M159.68,24.09V24c0-9.22,6.77-17.38,16.85-17.38a17.72,17.72,0,0,1,12.53,4.46L186.61,14a14.28,14.28,0,0,0-10.23-3.85c-7.44,0-12.76,6.29-12.76,13.78V24c0,8,5.13,14,13.29,14a15.84,15.84,0,0,0,9.7-3.36V26.25H176.38v-3.4h13.88V36.24a20.4,20.4,0,0,1-13.49,5.14C166.21,41.38,159.68,33.7,159.68,24.09Z" transform="translate(0.01 -3.11)"/><path d="M197.31,24.09V24c0-9.22,6.77-17.38,16.85-17.38a17.72,17.72,0,0,1,12.53,4.46L224.24,14A14.27,14.27,0,0,0,214,10.12c-7.44,0-12.77,6.29-12.77,13.78V24c0,8,5.13,14,13.29,14a15.84,15.84,0,0,0,9.7-3.36V26.25H214v-3.4h13.87V36.24a20.4,20.4,0,0,1-13.49,5.14C203.84,41.38,197.31,33.7,197.31,24.09Z" transform="translate(0.01 -3.11)"/><path d="M236.43,7.2h24.29v3.45h-20.5V22.13h18.34v3.45H240.22V37.34H261V40.8H236.43Z" transform="translate(0.01 -3.11)"/><path d="M268.59,7.2H283c4.13,0,7.44,1.25,9.55,3.36a9.27,9.27,0,0,1,2.59,6.62v.1c0,5.57-3.84,8.83-9.12,9.79L296.38,40.8h-4.65L282,27.74h-9.6V40.8h-3.79ZM282.7,24.33c5,0,8.64-2.59,8.64-6.91v-.09c0-4.13-3.16-6.63-8.59-6.63H272.38V24.33Z" transform="translate(0.01 -3.11)"/></g><g class="cls-2"><path d="M302.57,7.2h8l8.83,14.21L328.21,7.2h8V40.8h-7.34V18.86l-9.46,14.35h-.19L309.82,19V40.8h-7.25Z" transform="translate(0.01 -3.11)"/><path d="M344.24,7.2h25.34v6.57h-18v6.82h15.84v6.58H351.58v7h18.24V40.8H344.24Z" transform="translate(0.01 -3.11)"/><path d="M374.09,35.9l4.37-5.23c3,2.5,6.19,4.08,10,4.08,3,0,4.85-1.2,4.85-3.17v-.09c0-1.87-1.15-2.84-6.77-4.28-6.77-1.72-11.13-3.6-11.13-10.27v-.09c0-6.1,4.89-10.13,11.76-10.13A19.44,19.44,0,0,1,399.68,11l-3.84,5.57c-3-2.07-5.91-3.31-8.74-3.31s-4.32,1.29-4.32,2.92v.1c0,2.21,1.44,2.93,7.25,4.42,6.82,1.77,10.66,4.22,10.66,10.08v.09c0,6.68-5.09,10.42-12.34,10.42A21.39,21.39,0,0,1,374.09,35.9Z" transform="translate(0.01 -3.11)"/><path d="M407.12,7.2h7.39V20.49h13.63V7.2h7.39V40.8h-7.39V27.31H414.51V40.8h-7.39Z" transform="translate(0.01 -3.11)"/></g></g></svg>