<svg xmlns="http://www.w3.org/2000/svg" viewBox="0 0 305.4 192.67"><defs><style>.cls-1{fill:#316ce6;}</style></defs><g id="Layer_2" data-name="Layer 2"><g id="Layer_1-2" data-name="Layer 1"><path class="cls-1" d="M20.26,168.05H12.38v24.62H7.87V168.05H0v-4H20.26Z"/><path class="cls-1" d="M52.13,192.67H47.07L39.86,183H36.58v9.69H32.1V164h8.49a9.09,9.09,0,0,1,7.14,2.86,10.63,10.63,0,0,1,0,13.23,8.1,8.1,0,0,1-3.32,2.2ZM40.59,179a5.29,5.29,0,0,0,4.13-1.54,6.67,6.67,0,0,0,0-7.83,5.24,5.24,0,0,0-4.13-1.51h-4V179Z"/><path class="cls-1" d="M66,190.39a8.41,8.41,0,0,1-2.54-3.08,9.62,9.62,0,0,1-1-4.36V164H67V183a4.63,4.63,0,0,0,1.77,3.89,7.14,7.14,0,0,0,4.36,1.35,7.32,7.32,0,0,0,4.36-1.35A4.61,4.61,0,0,0,79.18,183V164h4.51V183a10.31,10.31,0,0,1-1,4.36,9.44,9.44,0,0,1-2.55,3.08,12.19,12.19,0,0,1-14.2,0Z"/><path class="cls-1" d="M101.6,175.69h10.45v4.05H101.6v8.88h12.69v4H97.12V164h17.17v4H101.6Z"/><path class="cls-1" d="M148.32,190.32a17,17,0,0,1-2.31,1.23,14.73,14.73,0,0,1-5.6,1.12,14.29,14.29,0,0,1-5.55-1.12,14.31,14.31,0,0,1-8.76-13.2,14.18,14.18,0,0,1,4.2-10.14A14.37,14.37,0,0,1,140.41,164a14,14,0,0,1,5.6,1.12l.62.27v5.29a9.85,9.85,0,1,0,.73,14.58,12.34,12.34,0,0,0,1-1.08Z"/><path class="cls-1" d="M181.51,192.67H177V180.32H165.61v12.35h-4.48V164h4.48v12.23H177V164h4.48Z"/><path class="cls-1" d="M210.72,186.53H200.53l-2.43,6.14h-4.94l12.46-29.94,12.43,29.94h-4.9Zm-1.62-4-3.48-8.72-3.47,8.72Z"/><path class="cls-1" d="M249.38,192.67h-5L237.11,183h-3.28v9.69h-4.48V164h8.49A9.09,9.09,0,0,1,245,166.9a10.59,10.59,0,0,1,0,13.23,8,8,0,0,1-3.32,2.2ZM237.84,179a5.27,5.27,0,0,0,4.13-1.54,6.67,6.67,0,0,0,0-7.83,5.23,5.23,0,0,0-4.13-1.51h-4V179Z"/><path class="cls-1" d="M278.7,168.05h-7.87v24.62h-4.51V168.05h-7.87v-4H278.7Z"/><path class="cls-1" d="M305.14,186.92a8.27,8.27,0,0,1-6.45,5.59,8.38,8.38,0,0,1-1.73.16,9.19,9.19,0,0,1-3.4-.62,11.34,11.34,0,0,1-4.74-3.66l3.55-2.78a6.41,6.41,0,0,0,2.81,2.24,4.5,4.5,0,0,0,2.63.23,3.82,3.82,0,0,0,3-2.39c.38-1.32-.51-2.47-1.32-3.25-1.27-1.19-3.35-3.24-3.51-3.39l-3.51-3.32a8.22,8.22,0,0,1-2.2-3.43,6.16,6.16,0,0,1-.07-3.63,6.51,6.51,0,0,1,2.12-3.2,7.43,7.43,0,0,1,3.43-1.62,7.55,7.55,0,0,1,4.25.31,9.59,9.59,0,0,1,3.89,2.89l-3.51,2.82a3.79,3.79,0,0,0-3.78-1.62,2.6,2.6,0,0,0-2.08,1.66c-.16.54-.12,1.42,1.08,2.58l4.78,4.59c.7.7,1.55,1.51,2.16,2.09a8.44,8.44,0,0,1,2.51,3.74A6.85,6.85,0,0,1,305.14,186.92Z"/><polygon class="cls-1" points="99.54 86.41 99.54 107.4 152.7 131.28 205.86 107.4 205.86 86.41 152.7 110.29 99.54 86.41"/><polygon class="cls-1" points="152.7 0 99.54 23.88 99.54 44.87 152.7 20.99 205.86 44.87 205.86 23.88 152.7 0"/><polygon class="cls-1" points="183.21 65.75 152.7 79.45 122.2 65.75 122.2 48.27 99.54 48.27 99.54 55.57 99.54 69.79 99.54 76.56 152.7 100.44 205.86 76.56 205.86 69.79 205.86 55.57 205.86 48.27 183.21 48.27 183.21 65.75"/></g></g></svg>